<?xml version="1.0" encoding="utf-8"?>
<!-- Generator: Adobe Illustrator 24.1.2, SVG Export Plug-In . SVG Version: 6.00 Build 0)  -->
<svg version="1.1" id="Layer_1" xmlns="http://www.w3.org/2000/svg" xmlns:xlink="http://www.w3.org/1999/xlink" x="0px" y="0px"
	 viewBox="0 0 500 500" style="enable-background:new 0 0 500 500;" xml:space="preserve">
<style type="text/css">
	.st0{display:none;}
	.st1{fill:#FFFFFF;}
</style>
<rect class="st0" width="500" height="500"/>
<path class="st1" d="M227.85,263.88l-22.32-22.32c0,0,0.7-109.53,50.93-162.55c0,0,99.07,104.65,25.12,291.62
	c0,0,96.28-26.51,143.72-149.3c0,0-55.81,13.95-93.49,58.6l1.4-32.09c0,0,66.97-54.42,115.81-51.63c0,0,0,114.42-157.67,195.34
	c0,0,61.39,23.72,125.58-5.58c0,0,5.58-8.37-46.05-15.35l19.53-19.53c0,0,54.42,18.14,64.18,33.49c0,0-85.11,71.16-199.53,15.35
	c-80.93-60-173.02-16.74-173.02-16.74s40.46,25.12,113.02,12.56l30.7,12.56c0,0-107.44,40.46-179.99-23.72
	c0,0,68.37-65.58,192.55-19.53c0,0-25.12-97.67-147.9-143.72c0,0,1.4,46.05,66.97,103.25l-26.51,1.4c0,0-60-50.23-66.97-129.76
	c0,0,126.97,2.79,196.74,164.65c0,0,61.39-129.76-4.19-246.97C256.45,113.88,222.97,164.11,227.85,263.88z"/>
</svg>
