<svg id="Layer_1" data-name="Layer 1" xmlns="http://www.w3.org/2000/svg" viewBox="0 0 408.83 342.29"><defs><style>.cls-1{fill:#a7d3aa;}</style></defs><path class="cls-1" d="M227.85,263.88l-22.33-22.33S206.22,132,256.45,79c0,0,99.07,104.65,25.12,291.62,0,0,96.27-26.51,143.72-149.3,0,0-55.82,14-93.49,58.6l1.39-32.09s67-54.41,115.82-51.62c0,0,0,114.41-157.67,195.34,0,0,61.39,23.72,125.57-5.58,0,0,5.58-8.37-46-15.35l19.53-19.53s54.42,18.13,64.19,33.48c0,0-85.12,71.16-199.53,15.35-80.93-60-173-16.74-173-16.74s40.46,25.11,113,12.56l30.7,12.55s-107.44,40.47-180-23.72c0,0,68.37-65.58,192.55-19.53,0,0-25.11-97.67-147.9-143.72,0,0,1.4,46.05,67,103.25L130.87,326s-60-50.23-67-129.76c0,0,127,2.79,196.74,164.64,0,0,61.39-129.76-4.19-247C256.45,113.88,223,164.11,227.85,263.88Z" transform="translate(-45.76 -79)"/></svg>