<svg id="Layer_1" data-name="Layer 1" xmlns="http://www.w3.org/2000/svg" viewBox="0 0 440 440"><defs><style>.cls-1{fill:#eaeaea;}</style></defs><path class="cls-1" d="M250,50a199.33,199.33,0,1,1-77.84,15.71A198.76,198.76,0,0,1,250,50m0-20C128.5,30,30,128.5,30,250a220,220,0,0,0,440,0c0-121.5-98.5-220-220-220Z" transform="translate(-30 -30)"/><ellipse class="cls-1" cx="220" cy="361" rx="155.62" ry="69"/><path class="cls-1" d="M250,332a199.47,199.47,0,0,1,141.84,59,200,200,0,0,1-283.68,0A199.47,199.47,0,0,1,250,332m0-20A219.49,219.49,0,0,0,81.13,391a220,220,0,0,0,337.74,0A219.49,219.49,0,0,0,250,312Z" transform="translate(-30 -30)"/><circle class="cls-1" cx="220.5" cy="171.5" r="76.5"/><path class="cls-1" d="M250.5,135A66.5,66.5,0,1,1,184,201.5,66.57,66.57,0,0,1,250.5,135m0-20A86.5,86.5,0,1,0,337,201.5,86.5,86.5,0,0,0,250.5,115Z" transform="translate(-30 -30)"/></svg>