<svg xmlns="http://www.w3.org/2000/svg" viewBox="0 0 419 418"><defs><style>.a{fill:#eaeaea;}</style></defs><path class="a" d="M250,41a10,10,0,0,0-10,10V73.78A176.51,176.51,0,0,0,73.78,240H50a10,10,0,0,0,0,20H73.78A176.51,176.51,0,0,0,240,426.22V449a10,10,0,0,0,20,0V426.22A176.51,176.51,0,0,0,426.22,260H449a10,10,0,0,0,0-20H426.22A176.51,176.51,0,0,0,260,73.78V51a10,10,0,0,0-10-10Zm0,86a10,10,0,0,0,10-10V93.82A156.51,156.51,0,0,1,406.18,240H383a10,10,0,0,0,0,20h23.18A156.51,156.51,0,0,1,260,406.18V383a10,10,0,0,0-20,0v23.18A156.51,156.51,0,0,1,93.82,260H116a10,10,0,0,0,0-20H93.82A156.51,156.51,0,0,1,240,93.82V117a10,10,0,0,0,10,10Z" transform="translate(-40 -41)"/><circle class="a" cx="210.5" cy="208.5" r="55.5"/></svg>